<svg width="39" height="56" viewBox="0 0 39 56" fill="none" xmlns="http://www.w3.org/2000/svg">
<path d="M12.75 20.625H26.25V18.375H12.75V20.625ZM9.375 12.75V15H29.625V12.75H9.375ZM17.25 26.25H21.75V24H17.25V26.25Z" fill="#F0552E"/>
<path d="M7.83203 44.8457V43.8359H2.28906V52H3.40625V48.3047H6.86523V47.3164H3.40625V44.8457H7.83203ZM9.16406 44.6094H10.3672V43.4062H9.16406V44.6094ZM9.22852 52H10.3027V45.5547H9.22852V52ZM12.5586 52H13.6328V43.4062H12.5586V52ZM19.3906 46.4785V45.5547H17.3496V43.8359H16.4473L16.2754 45.5547H15.0078V46.4785H16.2754V50.3672C16.2754 51.4844 16.9199 52.1074 18.1445 52.1074C18.5527 52.1074 18.9609 52.0645 19.3906 51.957V50.9473C18.918 51.0762 18.6387 51.0977 18.3164 51.0977C17.6504 51.0977 17.3496 50.9043 17.3496 50.1738V46.4785H19.3906ZM21.2598 49.1211H26.3516C26.373 49.0137 26.373 48.9062 26.373 48.7773C26.373 46.7578 25.1699 45.4473 23.3223 45.4473C21.4746 45.4473 20.1641 46.8008 20.1641 48.7773C20.1641 50.6895 21.3457 52.1074 23.4297 52.1074C24.8262 52.1074 25.707 51.5703 26.1797 50.9473L25.4062 50.2812C25.0625 50.7754 24.4609 51.1621 23.4082 51.1621C22.1836 51.1621 21.3887 50.3672 21.2598 49.1211ZM23.3223 46.3711C24.375 46.3711 25.1055 47.1016 25.2559 48.2617H21.2812C21.4531 47.1016 22.2051 46.3711 23.3223 46.3711ZM31.293 45.4473C30.3047 45.4473 29.4453 45.8984 28.9727 46.6289L28.8867 45.5547H27.9844V52H29.0586V48.3477C29.0586 47.2734 29.918 46.5215 30.9922 46.5215C31.2715 46.5215 31.5078 46.5215 31.7441 46.543V45.4902C31.5938 45.4688 31.4434 45.4473 31.293 45.4473ZM34.9668 52.1074C36.4922 52.1074 37.4805 51.3555 37.4805 50.1953C37.4805 49.2285 36.8574 48.7129 35.1387 48.2402C33.9785 47.9395 33.5918 47.6816 33.5918 47.2305C33.5918 46.7148 34.1289 46.3926 34.9453 46.3926C35.6328 46.3926 36.2344 46.6289 36.707 47.0801L37.3516 46.2422C36.6855 45.7266 35.8477 45.4473 34.9883 45.4473C33.5273 45.4473 32.5391 46.1992 32.5391 47.3164C32.5391 48.2832 33.1621 48.7988 34.8379 49.2285C36.0625 49.5293 36.4492 49.7871 36.4492 50.2812C36.4492 50.8398 35.9121 51.1621 34.9883 51.1621C34.1289 51.1621 33.4199 50.8828 32.8828 50.3457L32.2598 51.0977C32.9688 51.7637 33.8711 52.1074 34.9668 52.1074Z" fill="#F0552E"/>
</svg>
