<svg width="347" height="48" viewBox="0 0 347 48" fill="none" xmlns="http://www.w3.org/2000/svg">
<path d="M20.9429 15C22.519 15 24.0306 15.6261 25.1451 16.7406C26.2596 17.8551 26.8857 19.3667 26.8857 20.9429C26.8857 22.4149 26.3463 23.768 25.4594 24.8103L25.7063 25.0571H26.4286L31 29.6286L29.6286 31L25.0571 26.4286V25.7063L24.8103 25.4594C23.768 26.3463 22.4149 26.8857 20.9429 26.8857C19.3667 26.8857 17.8551 26.2596 16.7406 25.1451C15.6261 24.0306 15 22.519 15 20.9429C15 19.3667 15.6261 17.8551 16.7406 16.7406C17.8551 15.6261 19.3667 15 20.9429 15ZM20.9429 16.8286C18.6571 16.8286 16.8286 18.6571 16.8286 20.9429C16.8286 23.2286 18.6571 25.0571 20.9429 25.0571C23.2286 25.0571 25.0571 23.2286 25.0571 20.9429C25.0571 18.6571 23.2286 16.8286 20.9429 16.8286Z" fill="#999999"/>
<path d="M48.352 30.192C47.616 30.192 46.9333 30.0533 46.304 29.776C45.6747 29.488 45.1307 29.1093 44.672 28.64L45.472 27.712C45.8453 28.1067 46.2827 28.4267 46.784 28.672C47.296 28.9067 47.824 29.024 48.368 29.024C49.0613 29.024 49.6 28.8693 49.984 28.56C50.368 28.24 50.56 27.824 50.56 27.312C50.56 26.9493 50.48 26.6613 50.32 26.448C50.1707 26.2347 49.9627 26.0533 49.696 25.904C49.44 25.7547 49.1467 25.6053 48.816 25.456L47.312 24.8C46.9813 24.6613 46.6507 24.48 46.32 24.256C46 24.032 45.728 23.744 45.504 23.392C45.2907 23.04 45.184 22.608 45.184 22.096C45.184 21.5627 45.3227 21.088 45.6 20.672C45.888 20.2453 46.2827 19.9147 46.784 19.68C47.2853 19.4347 47.8507 19.312 48.48 19.312C49.1093 19.312 49.6907 19.4347 50.224 19.68C50.7573 19.9147 51.2107 20.224 51.584 20.608L50.864 21.472C50.544 21.1627 50.1867 20.9227 49.792 20.752C49.408 20.5707 48.9707 20.48 48.48 20.48C47.8933 20.48 47.4187 20.6187 47.056 20.896C46.704 21.1733 46.528 21.5467 46.528 22.016C46.528 22.3467 46.6133 22.624 46.784 22.848C46.9653 23.0613 47.1893 23.2373 47.456 23.376C47.7227 23.5147 47.9947 23.6427 48.272 23.76L49.76 24.4C50.1653 24.5707 50.528 24.7787 50.848 25.024C51.1787 25.2587 51.44 25.552 51.632 25.904C51.824 26.2453 51.92 26.6773 51.92 27.2C51.92 27.7547 51.776 28.2613 51.488 28.72C51.2 29.168 50.7893 29.5253 50.256 29.792C49.7227 30.0587 49.088 30.192 48.352 30.192ZM57.0109 30.192C56.3175 30.192 55.6882 30.032 55.1229 29.712C54.5575 29.3813 54.1095 28.912 53.7789 28.304C53.4482 27.696 53.2829 26.9707 53.2829 26.128C53.2829 25.2747 53.4482 24.544 53.7789 23.936C54.1202 23.328 54.5575 22.8587 55.0909 22.528C55.6242 22.1973 56.1842 22.032 56.7709 22.032C57.7629 22.032 58.5255 22.3627 59.0589 23.024C59.6029 23.6853 59.8749 24.5707 59.8749 25.68C59.8749 25.8187 59.8695 25.9573 59.8589 26.096C59.8589 26.224 59.8482 26.336 59.8269 26.432H54.5789C54.6322 27.2533 54.8882 27.9093 55.3469 28.4C55.8162 28.8907 56.4242 29.136 57.1709 29.136C57.5442 29.136 57.8855 29.0827 58.1949 28.976C58.5149 28.8587 58.8189 28.7093 59.1069 28.528L59.5709 29.392C59.2402 29.6053 58.8615 29.792 58.4349 29.952C58.0189 30.112 57.5442 30.192 57.0109 30.192ZM54.5629 25.488H58.7229C58.7229 24.6987 58.5522 24.1013 58.2109 23.696C57.8802 23.28 57.4109 23.072 56.8029 23.072C56.2589 23.072 55.7682 23.2853 55.3309 23.712C54.9042 24.128 54.6482 24.72 54.5629 25.488ZM63.3696 30.192C62.719 30.192 62.175 30 61.7376 29.616C61.311 29.2213 61.0976 28.6773 61.0976 27.984C61.0976 27.1307 61.4763 26.48 62.2336 26.032C63.0016 25.5733 64.2123 25.2533 65.8656 25.072C65.8656 24.7413 65.8176 24.4267 65.7216 24.128C65.6363 23.8293 65.4763 23.5893 65.2416 23.408C65.0176 23.216 64.6923 23.12 64.2656 23.12C63.8176 23.12 63.3963 23.2053 63.0016 23.376C62.607 23.5467 62.255 23.7387 61.9456 23.952L61.4336 23.04C61.7963 22.8053 62.239 22.5813 62.7616 22.368C63.295 22.144 63.871 22.032 64.4896 22.032C65.439 22.032 66.127 22.3253 66.5536 22.912C66.9803 23.488 67.1936 24.2613 67.1936 25.232V30H66.1056L65.9936 29.072H65.9456C65.583 29.3707 65.183 29.632 64.7456 29.856C64.319 30.08 63.8603 30.192 63.3696 30.192ZM63.7536 29.136C64.127 29.136 64.479 29.0453 64.8096 28.864C65.1403 28.6827 65.4923 28.4267 65.8656 28.096V25.936C64.575 26.096 63.6683 26.336 63.1456 26.656C62.6336 26.976 62.3776 27.3867 62.3776 27.888C62.3776 28.3253 62.511 28.6453 62.7776 28.848C63.0443 29.04 63.3696 29.136 63.7536 29.136ZM69.6401 30V22.224H70.7281L70.8401 23.632H70.8881C71.1548 23.1413 71.4801 22.752 71.8641 22.464C72.2481 22.176 72.6588 22.032 73.0961 22.032C73.4055 22.032 73.6828 22.0853 73.9281 22.192L73.6721 23.344C73.5441 23.3013 73.4268 23.2693 73.3201 23.248C73.2135 23.2267 73.0801 23.216 72.9201 23.216C72.5895 23.216 72.2428 23.3493 71.8801 23.616C71.5281 23.8827 71.2188 24.3467 70.9521 25.008V30H69.6401ZM78.1028 30.192C77.4201 30.192 76.8014 30.032 76.2468 29.712C75.6921 29.392 75.2548 28.928 74.9348 28.32C74.6148 27.712 74.4548 26.9813 74.4548 26.128C74.4548 25.2533 74.6254 24.512 74.9668 23.904C75.3188 23.296 75.7774 22.832 76.3428 22.512C76.9188 22.192 77.5374 22.032 78.1988 22.032C78.7108 22.032 79.1481 22.1227 79.5108 22.304C79.8841 22.4853 80.2041 22.6987 80.4708 22.944L79.7988 23.808C79.5748 23.6053 79.3348 23.44 79.0788 23.312C78.8334 23.184 78.5561 23.12 78.2468 23.12C77.7774 23.12 77.3561 23.248 76.9828 23.504C76.6201 23.7493 76.3321 24.1013 76.1188 24.56C75.9161 25.008 75.8148 25.5307 75.8148 26.128C75.8148 27.0133 76.0334 27.7333 76.4708 28.288C76.9188 28.832 77.5001 29.104 78.2148 29.104C78.5774 29.104 78.9134 29.0293 79.2228 28.88C79.5321 28.72 79.8041 28.5333 80.0388 28.32L80.6148 29.2C80.2628 29.5093 79.8734 29.7547 79.4468 29.936C79.0201 30.1067 78.5721 30.192 78.1028 30.192ZM82.3276 30V18.608H83.6396V21.712L83.5916 23.312C83.965 22.96 84.3543 22.6613 84.7596 22.416C85.1756 22.16 85.6503 22.032 86.1836 22.032C87.005 22.032 87.6023 22.2933 87.9756 22.816C88.3596 23.328 88.5516 24.08 88.5516 25.072V30H87.2396V25.248C87.2396 24.5227 87.1223 23.9947 86.8876 23.664C86.653 23.3333 86.2796 23.168 85.7676 23.168C85.373 23.168 85.0156 23.2693 84.6956 23.472C84.3863 23.6747 84.0343 23.9733 83.6396 24.368V30H82.3276Z" fill="#999999"/>
<rect x="0.5" y="0.5" width="346" height="47" rx="23.5" stroke="#EBEBEB"/>
</svg>
